<svg width="164" height="164" viewBox="0 0 164 164" fill="none" xmlns="http://www.w3.org/2000/svg">
<mask id="mask0_35_4" style="mask-type:alpha" maskUnits="userSpaceOnUse" x="0" y="0" width="164" height="164">
<rect width="164" height="164" rx="82" fill="#D9D9D9"/>
</mask>
<g mask="url(#mask0_35_4)">
<path d="M56.9954 36.7849V129.876H37.3136V55.4667H36.7681L15.45 68.8303V51.3758L38.4954 36.7849H56.9954ZM113.12 131.148C106.696 131.148 100.969 129.967 95.9386 127.603C90.9386 125.239 86.9689 121.982 84.0295 117.83C81.0901 113.679 79.5598 108.921 79.4386 103.558H98.5295C98.7416 107.164 100.257 110.088 103.075 112.33C105.893 114.573 109.242 115.694 113.12 115.694C116.211 115.694 118.939 115.012 121.302 113.648C123.696 112.255 125.56 110.33 126.893 107.876C128.257 105.391 128.939 102.542 128.939 99.3303C128.939 96.0576 128.242 93.1788 126.848 90.6939C125.484 88.2091 123.59 86.2697 121.166 84.8758C118.742 83.4818 115.969 82.7697 112.848 82.7394C110.12 82.7394 107.469 83.3 104.893 84.4212C102.348 85.5424 100.363 87.0727 98.9386 89.0121L81.4386 85.8758L85.8477 36.7849H142.757V52.8758H102.075L99.6659 76.1939H100.211C101.848 73.8909 104.317 71.9818 107.62 70.4667C110.923 68.9515 114.62 68.1939 118.711 68.1939C124.317 68.1939 129.317 69.5121 133.711 72.1485C138.105 74.7849 141.575 78.4061 144.12 83.0121C146.666 87.5879 147.923 92.8606 147.893 98.8303C147.923 105.103 146.469 110.679 143.529 115.558C140.62 120.406 136.545 124.224 131.302 127.012C126.09 129.77 120.029 131.148 113.12 131.148ZM165.348 129.876V36.7849H196.802C204.105 36.7849 210.075 38.103 214.711 40.7394C219.378 43.3455 222.833 46.8758 225.075 51.3303C227.317 55.7849 228.439 60.7545 228.439 66.2394C228.439 71.7242 227.317 76.7091 225.075 81.1939C222.863 85.6788 219.439 89.2545 214.802 91.9212C210.166 94.5576 204.226 95.8758 196.984 95.8758H174.439V85.8758H196.62C201.62 85.8758 205.636 85.0121 208.666 83.2849C211.696 81.5576 213.893 79.2242 215.257 76.2849C216.651 73.3152 217.348 69.9667 217.348 66.2394C217.348 62.5121 216.651 59.1788 215.257 56.2394C213.893 53.3 211.681 50.997 208.62 49.3303C205.56 47.6333 201.499 46.7849 196.439 46.7849H176.62V129.876H165.348ZM289.143 101.33V60.0576H299.87V129.876H289.143V118.058H288.416C286.779 121.603 284.234 124.618 280.779 127.103C277.325 129.558 272.961 130.785 267.689 130.785C263.325 130.785 259.446 129.83 256.052 127.921C252.658 125.982 249.992 123.073 248.052 119.194C246.113 115.285 245.143 110.361 245.143 104.421V60.0576H255.87V103.694C255.87 108.785 257.295 112.845 260.143 115.876C263.022 118.906 266.689 120.421 271.143 120.421C273.81 120.421 276.522 119.739 279.279 118.376C282.067 117.012 284.401 114.921 286.279 112.103C288.189 109.285 289.143 105.694 289.143 101.33ZM317.518 129.876V121.694L357.154 70.7849V70.0576H318.791V60.0576H370.973V68.603L332.427 119.148V119.876H372.245V129.876H317.518ZM386.768 129.876V121.694L426.404 70.7849V70.0576H388.041V60.0576H440.223V68.603L401.677 119.148V119.876H441.495V129.876H386.768ZM468.745 36.7849V129.876H458.018V36.7849H468.745ZM517.666 131.33C510.939 131.33 505.136 129.845 500.257 126.876C495.408 123.876 491.666 119.694 489.029 114.33C486.423 108.936 485.12 102.664 485.12 95.5121C485.12 88.3606 486.423 82.0576 489.029 76.603C491.666 71.1182 495.333 66.8455 500.029 63.7849C504.757 60.6939 510.272 59.1485 516.575 59.1485C520.211 59.1485 523.802 59.7545 527.348 60.9667C530.893 62.1788 534.12 64.1485 537.029 66.8758C539.939 69.5727 542.257 73.1485 543.984 77.603C545.711 82.0576 546.575 87.5424 546.575 94.0576V98.603H492.757V89.3303H535.666C535.666 85.3909 534.878 81.8758 533.302 78.7849C531.757 75.6939 529.545 73.2545 526.666 71.4667C523.817 69.6788 520.454 68.7849 516.575 68.7849C512.302 68.7849 508.605 69.8455 505.484 71.9667C502.393 74.0576 500.014 76.7849 498.348 80.1485C496.681 83.5121 495.848 87.1182 495.848 90.9667V97.1485C495.848 102.421 496.757 106.891 498.575 110.558C500.423 114.194 502.984 116.967 506.257 118.876C509.529 120.755 513.333 121.694 517.666 121.694C520.484 121.694 523.029 121.3 525.302 120.512C527.605 119.694 529.59 118.482 531.257 116.876C532.923 115.239 534.211 113.209 535.12 110.785L545.484 113.694C544.393 117.209 542.56 120.3 539.984 122.967C537.408 125.603 534.226 127.664 530.439 129.148C526.651 130.603 522.393 131.33 517.666 131.33Z" fill="white"/>
<path d="M-38.4317 135.548C5.32421 74.2984 102.894 -42.0964 143.127 -17.6759C193.418 12.8498 13.0187 130.061 47.7773 157.234C82.5359 184.406 307.426 -39.731 345.118 -19.5866C382.81 0.557718 196.138 141.83 225.883 167.55C255.627 193.269 458.654 -69.1628 502.012 -31.5713C545.369 6.02028 380.583 135.085 410.375 165.804C440.166 196.524 543.869 6.03448 564.548 24.8397C581.091 39.8839 553.685 92.2788 537.915 116.596" stroke="#319795" stroke-width="10"/>
<mask id="mask1_35_4" style="mask-type:alpha" maskUnits="userSpaceOnUse" x="-8" y="12" width="582" height="156">
<mask id="mask2_35_4" style="mask-type:alpha" maskUnits="userSpaceOnUse" x="-8" y="12" width="582" height="156">
<rect x="97.95" y="91.8757" width="60" height="60" fill="#D9D9D9"/>
<rect x="73.95" y="25.8758" width="77" height="80" fill="#D9D9D9"/>
<rect x="-7.05005" y="12.8758" width="81" height="65" fill="#D9D9D9"/>
</mask>
<g mask="url(#mask2_35_4)">
<path d="M-38.4317 135.548C5.32421 74.2984 102.894 -42.0964 143.127 -17.6759C193.418 12.8498 13.0187 130.061 47.7773 157.234C82.5359 184.406 307.426 -39.731 345.118 -19.5866C382.81 0.557718 196.138 141.83 225.883 167.55C255.627 193.269 458.654 -69.1628 502.012 -31.5713C545.369 6.02028 380.583 135.085 410.375 165.804C440.166 196.524 543.869 6.03448 564.548 24.8397C581.091 39.8839 553.685 92.2788 537.915 116.596" stroke="#319795" stroke-width="10"/>
</g>
</mask>
<g mask="url(#mask1_35_4)">
<g filter="url(#filter0_d_35_4)">
<path d="M56.9954 36.7849V129.876H37.3136V55.4667H36.7681L15.45 68.8303V51.3758L38.4954 36.7849H56.9954ZM113.12 131.148C106.696 131.148 100.969 129.967 95.9386 127.603C90.9386 125.239 86.9689 121.982 84.0295 117.83C81.0901 113.679 79.5598 108.921 79.4386 103.558H98.5295C98.7416 107.164 100.257 110.088 103.075 112.33C105.893 114.573 109.242 115.694 113.12 115.694C116.211 115.694 118.939 115.012 121.302 113.648C123.696 112.255 125.56 110.33 126.893 107.876C128.257 105.391 128.939 102.542 128.939 99.3303C128.939 96.0576 128.242 93.1788 126.848 90.6939C125.484 88.2091 123.59 86.2697 121.166 84.8758C118.742 83.4818 115.969 82.7697 112.848 82.7394C110.12 82.7394 107.469 83.3 104.893 84.4212C102.348 85.5424 100.363 87.0727 98.9386 89.0121L81.4386 85.8758L85.8477 36.7849H142.757V52.8758H102.075L99.6659 76.1939H100.211C101.848 73.8909 104.317 71.9818 107.62 70.4667C110.923 68.9515 114.62 68.1939 118.711 68.1939C124.317 68.1939 129.317 69.5121 133.711 72.1485C138.105 74.7849 141.575 78.4061 144.12 83.0121C146.666 87.5879 147.923 92.8606 147.893 98.8303C147.923 105.103 146.469 110.679 143.529 115.558C140.62 120.406 136.545 124.224 131.302 127.012C126.09 129.77 120.029 131.148 113.12 131.148ZM165.348 129.876V36.7849H196.802C204.105 36.7849 210.075 38.103 214.711 40.7394C219.378 43.3455 222.833 46.8758 225.075 51.3303C227.317 55.7849 228.439 60.7545 228.439 66.2394C228.439 71.7242 227.317 76.7091 225.075 81.1939C222.863 85.6788 219.439 89.2545 214.802 91.9212C210.166 94.5576 204.226 95.8758 196.984 95.8758H174.439V85.8758H196.62C201.62 85.8758 205.636 85.0121 208.666 83.2849C211.696 81.5576 213.893 79.2242 215.257 76.2849C216.651 73.3152 217.348 69.9667 217.348 66.2394C217.348 62.5121 216.651 59.1788 215.257 56.2394C213.893 53.3 211.681 50.997 208.62 49.3303C205.56 47.6333 201.499 46.7849 196.439 46.7849H176.62V129.876H165.348ZM289.143 101.33V60.0576H299.87V129.876H289.143V118.058H288.416C286.779 121.603 284.234 124.618 280.779 127.103C277.325 129.558 272.961 130.785 267.689 130.785C263.325 130.785 259.446 129.83 256.052 127.921C252.658 125.982 249.992 123.073 248.052 119.194C246.113 115.285 245.143 110.361 245.143 104.421V60.0576H255.87V103.694C255.87 108.785 257.295 112.845 260.143 115.876C263.022 118.906 266.689 120.421 271.143 120.421C273.81 120.421 276.522 119.739 279.279 118.376C282.067 117.012 284.401 114.921 286.279 112.103C288.189 109.285 289.143 105.694 289.143 101.33ZM317.518 129.876V121.694L357.154 70.7849V70.0576H318.791V60.0576H370.973V68.603L332.427 119.148V119.876H372.245V129.876H317.518ZM386.768 129.876V121.694L426.404 70.7849V70.0576H388.041V60.0576H440.223V68.603L401.677 119.148V119.876H441.495V129.876H386.768ZM468.745 36.7849V129.876H458.018V36.7849H468.745ZM517.666 131.33C510.939 131.33 505.136 129.845 500.257 126.876C495.408 123.876 491.666 119.694 489.029 114.33C486.423 108.936 485.12 102.664 485.12 95.5121C485.12 88.3606 486.423 82.0576 489.029 76.603C491.666 71.1182 495.333 66.8455 500.029 63.7849C504.757 60.6939 510.272 59.1485 516.575 59.1485C520.211 59.1485 523.802 59.7545 527.348 60.9667C530.893 62.1788 534.12 64.1485 537.029 66.8758C539.939 69.5727 542.257 73.1485 543.984 77.603C545.711 82.0576 546.575 87.5424 546.575 94.0576V98.603H492.757V89.3303H535.666C535.666 85.3909 534.878 81.8758 533.302 78.7849C531.757 75.6939 529.545 73.2545 526.666 71.4667C523.817 69.6788 520.454 68.7849 516.575 68.7849C512.302 68.7849 508.605 69.8455 505.484 71.9667C502.393 74.0576 500.014 76.7849 498.348 80.1485C496.681 83.5121 495.848 87.1182 495.848 90.9667V97.1485C495.848 102.421 496.757 106.891 498.575 110.558C500.423 114.194 502.984 116.967 506.257 118.876C509.529 120.755 513.333 121.694 517.666 121.694C520.484 121.694 523.029 121.3 525.302 120.512C527.605 119.694 529.59 118.482 531.257 116.876C532.923 115.239 534.211 113.209 535.12 110.785L545.484 113.694C544.393 117.209 542.56 120.3 539.984 122.967C537.408 125.603 534.226 127.664 530.439 129.148C526.651 130.603 522.393 131.33 517.666 131.33Z" fill="white"/>
</g>
</g>
</g>
<defs>
<filter id="filter0_d_35_4" x="2.44995" y="27.7849" width="557.125" height="120.545" filterUnits="userSpaceOnUse" color-interpolation-filters="sRGB">
<feFlood flood-opacity="0" result="BackgroundImageFix"/>
<feColorMatrix in="SourceAlpha" type="matrix" values="0 0 0 0 0 0 0 0 0 0 0 0 0 0 0 0 0 0 127 0" result="hardAlpha"/>
<feOffset dy="4"/>
<feGaussianBlur stdDeviation="6.5"/>
<feComposite in2="hardAlpha" operator="out"/>
<feColorMatrix type="matrix" values="0 0 0 0 0 0 0 0 0 0 0 0 0 0 0 0 0 0 0.25 0"/>
<feBlend mode="normal" in2="BackgroundImageFix" result="effect1_dropShadow_35_4"/>
<feBlend mode="normal" in="SourceGraphic" in2="effect1_dropShadow_35_4" result="shape"/>
</filter>
</defs>
</svg>
