<svg width="500" height="500" viewBox="0 0 500 500" fill="none" xmlns="http://www.w3.org/2000/svg">
<mask id="mask0_65_5" style="mask-type:alpha" maskUnits="userSpaceOnUse" x="0" y="0" width="500" height="500">
<rect width="500" height="500" rx="250" fill="#474747"/>
</mask>
<g mask="url(#mask0_65_5)">
<path fill-rule="evenodd" clip-rule="evenodd" d="M2.86951 212C21.1747 91.963 124.848 0 250 0C388.071 0 500 111.929 500 250C500 382.859 396.362 491.512 265.52 499.526V291.727H341.585V212.182H265.52V186.578C265.52 173.652 268.586 163.626 274.717 156.5C280.849 149.208 291.704 145.562 307.281 145.562C313.579 145.562 319.71 146.143 325.676 147.303C331.808 148.463 336.945 149.705 341.088 151.031L359.98 71.4858C353.351 69.4971 343.242 67.2599 329.653 64.7741C316.23 62.2883 301.398 61.0454 285.158 61.0454C261.128 61.0454 239.668 65.6027 220.776 74.7173C201.884 83.8319 186.969 97.5038 176.031 115.733C165.259 133.962 159.874 156.914 159.874 184.589V212H2.86951ZM3.51277 292C18.3582 379.758 78.9335 451.967 159.874 483.261V292H3.51277Z" fill="white"/>
</g>
</svg>
